<?xml version="1.0" encoding="UTF-8"?>
<svg xmlns="http://www.w3.org/2000/svg" xmlns:xlink="http://www.w3.org/1999/xlink" width="50.0px" height="56.25px" viewBox="0 0 146 164" version="1.1">
<defs>
<clipPath id="clip1">
  <path d="M 28.625 41 L 117.375 41 L 117.375 123 L 28.625 123 Z M 28.625 41 "/>
</clipPath>
</defs>
<g id="surface1">
<path style=" stroke:none;fill-rule:nonzero;fill:rgb(46.666667%,83.137255%,98.823529%);fill-opacity:1;" d="M 100.183594 18.679688 C 100.507812 18.679688 103.085938 19.96875 104.539062 20.453125 C 104.054688 20.613281 102.925781 20.132812 101.636719 19.648438 C 101.957031 19.648438 102.601562 19.808594 103.25 20.132812 C 102.925781 19.808594 100.507812 19.003906 100.183594 18.679688 M 76.144531 13.6875 C 76.628906 13.527344 82.277344 14.332031 84.859375 14.492188 C 85.019531 14.332031 84.535156 14.332031 83.890625 14.171875 C 84.695312 14.011719 86.308594 14.492188 87.4375 14.65625 C 84.050781 14.816406 80.339844 13.847656 77.113281 14.171875 C 75.984375 14.171875 76.792969 13.847656 76.144531 13.6875 M 71.46875 13.6875 C 74.371094 13.6875 76.628906 13.6875 72.433594 14.011719 C 71.949219 13.847656 71.304688 13.847656 71.46875 13.6875 M 117.121094 27.058594 C 117.445312 27.058594 118.734375 28.507812 119.382812 28.992188 C 119.21875 29.152344 117.929688 27.863281 117.285156 27.378906 C 117.445312 27.542969 117.285156 27.378906 117.121094 27.058594 M 113.894531 24.964844 C 112.605469 23.835938 112.121094 23.835938 111.960938 23.191406 C 113.089844 23.835938 113.894531 24.480469 113.894531 24.964844 M 93.085938 14.816406 C 93.246094 14.65625 93.570312 14.976562 94.375 15.136719 C 93.40625 14.976562 93.570312 15.136719 93.890625 15.460938 C 92.761719 15.296875 92.441406 15.136719 92.761719 14.816406 C 93.40625 15.136719 93.570312 14.976562 93.085938 14.816406 M 47.269531 16.75 C 47.269531 16.585938 47.914062 16.265625 48.398438 16.105469 C 47.914062 16.425781 48.074219 16.585938 48.882812 16.265625 C 48.882812 16.425781 47.914062 16.75 47.269531 17.070312 C 47.589844 16.910156 47.914062 16.425781 47.269531 16.75 M 96.3125 13.203125 C 95.828125 13.367188 94.054688 12.398438 92.277344 12.078125 C 91.308594 11.753906 96.148438 12.882812 96.3125 13.203125 M 1.128906 92.777344 C 2.097656 96.804688 1.453125 96.644531 1.128906 92.777344 M 1.289062 68.617188 C 1.453125 67.972656 1.613281 66.199219 1.773438 66.359375 C 1.289062 70.226562 0.484375 72 0.324219 74.898438 C 0.808594 72.320312 0.160156 76.347656 0 77.316406 C 0.160156 78.601562 0.160156 76.507812 0.484375 76.832031 C 0.808594 77.316406 -0.160156 84.082031 0.160156 80.375 C -0.160156 83.757812 0.160156 87.464844 0.808594 88.429688 C 0 93.582031 4.035156 105.179688 4.839844 107.597656 C 5 107.757812 4.839844 106.792969 5.164062 107.4375 C 5.484375 109.53125 6.9375 110.980469 7.421875 113.234375 C 7.90625 113.878906 9.839844 117.421875 10.164062 118.230469 C 10.808594 119.519531 11.132812 119.355469 11.777344 120.644531 C 13.710938 124.351562 16.777344 127.894531 19.683594 131.277344 C 29.039062 142.230469 43.398438 151.25 59.367188 154.472656 C 75.339844 157.855469 92.117188 155.4375 105.183594 149.15625 C 105.992188 148.671875 105.828125 148.511719 106.796875 148.191406 C 111.316406 146.742188 116.800781 142.070312 119.863281 140.296875 C 121.316406 138.6875 125.1875 135.949219 125.671875 134.335938 C 128.414062 132.082031 131.15625 128.378906 132.609375 125.960938 C 133.417969 124.671875 134.0625 124.671875 134.382812 123.867188 C 134.222656 123.867188 136.964844 120.484375 137.773438 118.550781 C 137.449219 118.550781 136.964844 119.519531 136.964844 118.550781 C 142.773438 107.4375 146 92.457031 144.226562 82.148438 C 144.546875 94.871094 141.320312 109.046875 135.191406 118.066406 C 132.449219 123.867188 126.800781 130.148438 121.640625 134.660156 C 120.832031 135.464844 120.027344 136.429688 119.058594 137.074219 C 115.992188 139.652344 112.605469 141.746094 109.054688 143.679688 C 100.667969 148.351562 91.3125 152.378906 80.339844 152.539062 C 99.214844 150.929688 116.15625 141.425781 125.511719 129.828125 C 118.414062 136.753906 115.347656 139.492188 107.441406 143.519531 C 106.796875 144.644531 101.472656 146.902344 97.925781 147.867188 C 100.023438 146.902344 104.378906 145.289062 105.828125 144.003906 C 94.054688 149.640625 80.984375 152.863281 68.726562 151.089844 C 73.402344 151.089844 80.019531 151.25 86.308594 150.125 C 87.277344 149.800781 87.761719 149.480469 88.890625 149.316406 C 101.152344 146.578125 112.929688 140.621094 121.316406 132.242188 C 116.476562 136.59375 109.21875 141.746094 104.539062 143.359375 C 108.894531 140.941406 116.800781 136.269531 119.382812 132.726562 C 114.21875 137.882812 104.539062 143.035156 98.410156 145.289062 C 97.441406 145.453125 99.054688 144.648438 97.441406 145.289062 C 95.503906 145.773438 96.3125 145.773438 95.828125 146.097656 C 88.40625 148.191406 79.855469 149.960938 72.757812 149.316406 C 71.46875 149.15625 70.984375 148.835938 69.855469 148.835938 C 68.5625 148.671875 67.433594 148.671875 65.980469 148.671875 C 60.335938 148.027344 54.207031 145.773438 49.6875 143.839844 C 47.269531 142.714844 44.847656 141.910156 42.429688 140.457031 C 40.492188 139.332031 38.878906 138.042969 37.265625 136.753906 C 31.136719 132.242188 25.972656 127.734375 21.132812 121.289062 C 12.421875 109.207031 7.90625 94.066406 8.550781 79.085938 C 9.195312 64.105469 15.164062 49.449219 24.683594 38.65625 C 24.199219 39.136719 25.328125 37.527344 26.296875 36.5625 C 26.296875 36.882812 26.132812 37.367188 27.265625 36.238281 C 28.230469 35.113281 26.941406 35.917969 27.425781 35.273438 C 37.425781 24.320312 54.851562 15.460938 72.757812 15.136719 C 73.402344 14.65625 74.53125 14.011719 75.824219 14.332031 C 75.824219 14.492188 75.015625 14.492188 75.015625 14.492188 C 76.789062 14.332031 78.402344 14.332031 79.210938 14.65625 C 79.371094 14.492188 78.566406 14.332031 79.210938 14.332031 C 80.339844 14.65625 80.664062 14.332031 81.308594 14.65625 C 80.824219 14.65625 80.339844 14.65625 80.019531 14.816406 C 84.050781 14.816406 86.632812 15.78125 90.664062 16.105469 C 88.566406 15.621094 88.085938 15.621094 86.472656 15.136719 C 88.246094 15.460938 89.050781 15.78125 89.859375 15.621094 C 89.535156 15.621094 89.695312 15.136719 90.019531 15.300781 C 93.246094 16.105469 93.570312 16.425781 96.957031 17.554688 C 97.28125 17.230469 95.503906 17.070312 95.019531 16.585938 C 98.246094 17.714844 101.152344 18.519531 103.085938 19.808594 C 102.441406 19.324219 100.507812 18.679688 99.054688 18.039062 C 98.894531 18.199219 99.539062 18.359375 99.699219 18.679688 C 98.085938 17.875 95.828125 17.070312 93.570312 16.75 C 95.503906 17.230469 96.796875 17.875 97.601562 18.199219 C 95.828125 17.875 93.570312 16.75 90.988281 16.265625 C 95.183594 17.554688 103.085938 20.453125 107.925781 23.03125 C 106.152344 21.902344 104.054688 21.097656 102.925781 20.453125 C 103.894531 20.613281 105.023438 21.257812 105.023438 20.9375 C 106.152344 21.417969 107.605469 22.546875 108.410156 22.707031 C 106.960938 21.742188 104.054688 20.292969 103.085938 19.808594 C 115.1875 25.285156 125.996094 34.46875 132.933594 46.226562 C 133.578125 47.355469 134.546875 49.929688 135.351562 50.253906 C 135.191406 49.449219 134.546875 48.964844 133.902344 47.675781 C 134.222656 47.675781 134.222656 47.191406 133.902344 46.710938 C 133.253906 45.902344 133.902344 47.355469 133.253906 46.546875 C 130.351562 41.230469 126.800781 36.5625 121.316406 31.40625 C 124.382812 34.304688 122.125 32.210938 121.476562 31.246094 C 125.671875 34.949219 130.511719 41.234375 132.609375 44.453125 C 132.289062 43.972656 132.125 43.648438 132.289062 43.648438 C 136.160156 50.253906 138.578125 56.214844 141 64.75 C 141.160156 64.910156 141 64.105469 141.320312 64.589844 C 142.933594 71.355469 143.417969 76.992188 143.257812 82.148438 C 144.546875 73.449219 141.644531 59.917969 136.480469 49.285156 C 135.835938 47.996094 135.835938 48.964844 135.191406 47.515625 C 135.191406 47.03125 134.707031 46.066406 134.382812 45.421875 C 127.929688 34.789062 120.027344 27.21875 110.667969 21.257812 C 111.316406 21.582031 112.605469 22.546875 112.605469 22.386719 C 95.183594 10.949219 75.015625 9.339844 58.398438 12.882812 C 57.269531 13.367188 56.785156 13.847656 55.496094 14.492188 C 57.914062 13.6875 59.367188 13.527344 61.625 13.042969 C 62.109375 12.558594 59.527344 13.203125 60.660156 12.722656 C 60.820312 12.882812 62.917969 12.398438 63.402344 12.5625 C 63.402344 12.722656 62.753906 12.882812 62.59375 13.042969 C 67.917969 11.914062 73.402344 11.753906 78.082031 12.078125 C 75.339844 12.238281 70.339844 11.753906 68.726562 12.5625 C 70.339844 12.398438 72.597656 12.238281 74.046875 12.398438 C 72.113281 12.398438 68.5625 12.5625 66.949219 12.722656 C 66.789062 12.558594 69.53125 12.238281 67.757812 12.238281 C 66.949219 12.398438 65.660156 12.398438 65.175781 12.882812 C 51.300781 14.171875 37.75 21.417969 28.230469 29.957031 C 26.296875 31.566406 24.039062 33.339844 22.585938 35.113281 C 19.035156 39.136719 16.777344 43.164062 14.195312 46.710938 C 15.808594 43.328125 19.359375 38.171875 23.554688 33.824219 C 27.746094 29.472656 32.265625 25.769531 34.683594 23.835938 C 34.683594 24.480469 38.558594 21.417969 40.007812 20.453125 C 39.039062 21.257812 40.652344 20.132812 40.976562 20.292969 C 46.140625 17.230469 50.332031 16.105469 55.011719 14.332031 C 53.882812 14.65625 52.914062 14.976562 52.753906 14.816406 C 53.882812 14.492188 54.527344 14.171875 54.367188 14.011719 C 49.847656 15.300781 42.75 18.359375 37.105469 21.742188 C 47.269531 14.816406 60.175781 10.628906 72.917969 10.464844 C 85.664062 10.144531 98.085938 13.367188 107.925781 18.519531 C 114.542969 21.421875 120.832031 26.734375 125.835938 31.890625 C 127.285156 33.179688 126.15625 31.566406 128.253906 33.824219 C 127.609375 33.5 127.125 33.179688 127.929688 34.144531 C 129.222656 35.59375 127.609375 33.019531 129.707031 35.59375 C 129.542969 35.59375 128.898438 34.789062 128.898438 35.113281 C 134.546875 40.105469 138.902344 49.125 141.484375 55.085938 C 140.835938 52.667969 139.222656 49.285156 137.933594 46.871094 C 141.804688 53.957031 143.097656 58.144531 144.710938 64.429688 C 145.355469 64.910156 144.386719 62.171875 145.03125 63.460938 C 145.191406 64.429688 145.355469 67.488281 146 67.972656 C 145.515625 64.910156 144.710938 61.207031 144.0625 60.5625 C 144.546875 60.882812 143.257812 56.859375 142.449219 55.890625 C 142.128906 53.3125 139.871094 48.804688 137.933594 45.421875 C 130.996094 31.890625 118.574219 20.777344 104.699219 14.65625 C 104.699219 14.332031 103.894531 14.011719 103.570312 13.6875 C 89.859375 7.890625 73.402344 6.277344 57.59375 9.984375 C 41.621094 13.847656 26.617188 23.03125 15.972656 36.238281 C 16.457031 34.628906 20.488281 31.566406 20.648438 30.28125 C 15.972656 35.273438 10.96875 41.878906 7.582031 48.964844 C 4.035156 56.050781 2.097656 63.300781 1.289062 68.617188 "/>
<g clip-path="url(#clip1)" clip-rule="nonzero">
<path style=" stroke:none;fill-rule:nonzero;fill:rgb(46.666667%,83.137255%,98.823529%);fill-opacity:1;" d="M 44.578125 49.269531 C 46.84375 46.425781 50.855469 44.480469 56.609375 43.4375 C 59.109375 43.03125 61.667969 42.828125 64.28125 42.828125 C 66.898438 42.828125 69.601562 43.058594 72.390625 43.523438 C 73.902344 41.839844 75.441406 41 77.011719 41 C 77.417969 41 77.695312 41.097656 77.847656 41.296875 C 77.988281 41.503906 77.96875 41.726562 77.796875 41.957031 C 77.621094 42.191406 77.230469 42.40625 76.625 42.601562 C 76.011719 42.8125 75.296875 43.261719 74.480469 43.960938 C 76.457031 44.539062 77.824219 45.015625 78.578125 45.386719 C 79.335938 45.769531 79.90625 46.25 80.289062 46.832031 C 80.660156 47.414062 80.847656 47.820312 80.847656 48.050781 C 80.847656 48.574219 80.050781 48.574219 78.457031 48.050781 C 76.851562 47.527344 74.976562 47.121094 72.824219 46.832031 C 71.78125 49.328125 70.675781 52.75 69.511719 57.105469 C 68.351562 61.457031 67.652344 64.066406 67.421875 64.9375 C 70.558594 64.183594 72.667969 63.808594 73.75 63.808594 C 74.820312 63.808594 75.46875 63.875 75.703125 64.015625 C 75.933594 64.167969 76.070312 64.359375 76.105469 64.589844 C 76.125 64.824219 76.082031 65.007812 75.964844 65.148438 C 75.847656 65.296875 75.660156 65.316406 75.40625 65.199219 C 75.140625 65.082031 74.65625 65.027344 73.960938 65.027344 C 73.261719 65.027344 71.953125 65.269531 70.035156 65.757812 C 68.117188 66.253906 66.984375 67 66.636719 67.984375 C 61.289062 82.667969 54.488281 92.882812 46.234375 98.625 C 42.574219 101.238281 39.230469 102.542969 36.210938 102.542969 C 35.105469 102.542969 34.058594 102.371094 33.070312 102.019531 C 30.105469 101.035156 28.625 98.847656 28.625 95.457031 C 28.625 92.058594 30.398438 88.324219 33.941406 84.261719 C 41.089844 76.082031 50.738281 70.074219 62.886719 66.246094 C 63.0625 65.722656 63.613281 64.011719 64.542969 61.109375 C 66.578125 54.492188 68.464844 49.675781 70.210938 46.65625 C 69.511719 46.65625 68.464844 46.65625 67.070312 46.65625 C 65.675781 46.65625 63.699219 46.804688 61.144531 47.09375 C 54.574219 47.847656 49.898438 49.5 47.105469 52.054688 C 45.652344 53.449219 44.925781 55.042969 44.925781 56.84375 C 44.925781 57.714844 45.175781 58.496094 45.675781 59.191406 C 46.164062 59.890625 46.640625 60.382812 47.105469 60.671875 C 47.863281 61.195312 48.878906 61.777344 50.160156 62.414062 C 50.855469 62.9375 51 63.253906 50.59375 63.371094 C 50.421875 63.371094 50.214844 63.34375 49.984375 63.285156 C 48.589844 62.996094 47.105469 62.152344 45.539062 60.761719 C 43.96875 59.367188 43.15625 57.769531 43.097656 55.972656 C 42.921875 55.335938 42.835938 54.8125 42.835938 54.40625 C 42.835938 52.492188 43.417969 50.777344 44.578125 49.269531 Z M 33.15625 94.796875 C 33.15625 95.433594 33.214844 96.074219 33.332031 96.710938 C 33.914062 98.917969 35.367188 100.019531 37.691406 100.019531 C 41.121094 100.019531 44.722656 97.726562 48.503906 93.140625 C 54.082031 86.351562 58.703125 77.9375 62.363281 67.898438 C 52.191406 71.207031 44.144531 76.574219 38.214844 84.003906 C 34.84375 88.121094 33.15625 91.71875 33.15625 94.796875 Z M 75.039062 120.527344 C 74.902344 120.78125 74.753906 120.96875 74.605469 121.085938 C 74.464844 121.199219 73.871094 121.550781 72.824219 122.128906 C 71.78125 122.710938 70.832031 123 69.984375 123 C 69.148438 123 68.726562 122.796875 68.726562 122.390625 C 68.726562 122.214844 68.785156 121.984375 68.902344 121.695312 C 69.949219 119.722656 75.324219 106.34375 85.03125 81.566406 C 83.230469 81.796875 81.890625 81.914062 81.019531 81.914062 C 80.148438 81.914062 79.464844 81.722656 78.964844 81.339844 C 78.476562 80.96875 78.230469 80.472656 78.230469 79.859375 C 78.230469 79.253906 78.882812 78.703125 80.183594 78.203125 C 81.496094 77.71875 82.503906 77.472656 83.199219 77.472656 C 83.898438 77.472656 84.480469 77.707031 84.945312 78.167969 C 85.410156 78.632812 85.726562 78.867188 85.902344 78.867188 L 86.164062 78.867188 L 88.691406 72.425781 C 89.738281 69.523438 91.335938 65.734375 93.488281 61.054688 C 95.636719 56.390625 97.585938 52.664062 99.328125 49.878906 C 103.222656 44.019531 107.117188 41.085938 111.011719 41.085938 L 113.101562 41.347656 L 114.847656 41.957031 C 116.53125 42.945312 117.375 44.289062 117.375 45.996094 C 117.375 47.714844 116.910156 49.558594 115.980469 51.53125 C 114.410156 54.898438 111.214844 59.28125 106.390625 64.675781 C 101.566406 70.074219 96.917969 74.570312 92.441406 78.167969 C 97.207031 77.761719 100.269531 77.558594 101.628906 77.558594 C 103.003906 77.558594 103.71875 77.734375 103.773438 78.082031 C 103.773438 78.316406 103.222656 78.585938 102.117188 78.902344 C 101.015625 79.226562 96.539062 79.96875 88.691406 81.128906 C 81.777344 98.65625 78.261719 108.695312 78.144531 111.25 C 78.085938 112.523438 77.953125 113.441406 77.742188 114 C 77.546875 114.542969 77.300781 115.183594 77.011719 115.914062 C 76.71875 116.632812 76.5 117.183594 76.347656 117.566406 C 76.207031 117.941406 76.050781 118.355469 75.878906 118.820312 C 75.703125 119.285156 75.558594 119.621094 75.441406 119.832031 C 75.324219 120.027344 75.191406 120.261719 75.039062 120.527344 Z M 113.539062 50.3125 C 114.527344 48.632812 115.023438 47.035156 115.023438 45.527344 C 115.023438 44.019531 114.46875 43.261719 113.363281 43.261719 C 111.15625 43.261719 108.019531 46.105469 103.949219 51.792969 C 101.566406 55.160156 99.445312 58.496094 97.585938 61.804688 C 93.867188 68.769531 91.484375 73.847656 90.4375 77.039062 L 89.738281 78.429688 C 93.808594 75.414062 98.136719 71.117188 102.730469 65.546875 C 107.320312 59.976562 110.925781 54.898438 113.539062 50.3125 Z M 113.539062 50.3125 "/>
</g>
</g>
</svg>
